<?xml version="1.0" standalone="no"?>
<!DOCTYPE svg PUBLIC "-//W3C//DTD SVG 20010904//EN"
 "http://www.w3.org/TR/2001/REC-SVG-20010904/DTD/svg10.dtd">
<svg version="1.0" xmlns="http://www.w3.org/2000/svg"
 width="1777.000000pt" height="1777.000000pt" viewBox="0 0 1777.000000 1777.000000"
 preserveAspectRatio="xMidYMid meet">

<g transform="translate(0.000000,1777.000000) scale(0.100000,-0.100000)"
fill="#000000" stroke="none">
<path d="M294 17720 c-79 -4 -97 -9 -140 -35 -30 -19 -60 -49 -79 -79 l-30
-49 -3 -8651 c-2 -6236 0 -8665 8 -8702 13 -61 63 -124 124 -157 l41 -22 8645
-3 c6291 -2 8659 0 8697 8 71 15 125 57 157 121 l26 53 0 8660 c0 5688 -4
8673 -10 8697 -14 49 -71 113 -126 139 l-46 23 -8586 1 c-4723 0 -8628 -1
-8678 -4z m16815 -461 c17 -6 31 -15 31 -20 0 -5 -97 -105 -216 -222 l-216
-212 -87 -5 c-47 -3 -3545 -5 -7774 -5 l-7687 0 -225 225 c-124 124 -225 229
-225 234 0 5 15 6 33 4 17 -3 66 -2 107 2 131 12 16223 12 16259 -1z m-16139
-8325 l0 -7799 -223 -223 c-122 -122 -225 -222 -228 -222 -4 0 -12 20 -18 44
-15 61 -15 16270 0 16336 5 25 17 56 26 69 l15 24 214 -214 214 -215 0 -7800z
m16302 8059 c2 -60 3 -3751 3 -8203 0 -6797 -3 -8100 -14 -8129 l-14 -33 -223
223 -224 224 0 7785 0 7785 227 227 c125 126 231 228 235 228 4 0 8 -48 10
-107z m-11747 -465 c30 -24 55 -74 55 -113 0 -14 4 -25 10 -25 5 0 14 -9 20
-21 9 -16 8 -26 -4 -44 -11 -16 -12 -26 -5 -31 6 -3 24 -27 40 -52 63 -100 24
-156 -108 -150 -59 3 -76 7 -97 27 -30 28 -32 47 -10 79 18 26 65 30 84 7 14
-16 40 -20 40 -6 0 5 -16 21 -35 35 -42 33 -50 60 -36 125 16 73 0 104 -48 98
-72 -9 -105 30 -64 75 25 27 121 25 158 -4z m3663 5 c11 -10 28 -44 37 -75 20
-66 10 -91 -33 -86 -34 4 -61 43 -69 102 -5 41 -3 51 12 62 24 18 29 18 53 -3z
m-3008 -19 c26 -22 31 -33 28 -63 -3 -33 -6 -36 -36 -39 -22 -2 -34 2 -38 12
-3 9 -15 16 -25 16 -14 0 -19 -7 -18 -27 1 -36 23 -98 35 -97 26 1 64 18 64
28 0 24 20 39 61 47 24 4 62 12 84 18 22 6 66 11 97 11 50 0 60 -3 73 -24 13
-19 14 -29 5 -45 -12 -24 -32 -30 -110 -33 -40 -2 -55 -7 -56 -18 -1 -8 -2
-23 -3 -33 0 -9 -12 -23 -26 -29 -22 -10 -29 -8 -53 15 -27 26 -28 26 -40 6
-7 -11 -29 -27 -48 -35 -27 -11 -34 -19 -29 -32 19 -50 17 -70 -9 -87 -24 -16
-28 -16 -49 -2 -14 9 -29 34 -37 61 -8 28 -20 48 -31 51 -25 8 -36 52 -17 71
13 13 13 22 0 72 -19 71 -11 105 33 149 43 43 98 46 145 7z m-2436 0 c19 -18
21 -60 4 -70 -6 -4 -27 -7 -46 -6 -39 2 -72 -13 -72 -31 0 -7 9 -30 20 -52 11
-22 20 -47 20 -56 0 -9 7 -22 15 -29 9 -7 15 -29 15 -51 0 -43 18 -59 69 -59
65 0 102 -32 81 -70 -18 -34 -45 -42 -107 -30 -93 17 -168 86 -149 136 4 11
-2 26 -15 40 -14 15 -22 35 -21 55 0 18 -6 42 -14 53 -35 50 -8 126 60 167 39
24 118 25 140 3z m3640 -9 c15 -16 56 -116 56 -139 0 -7 -9 -21 -20 -31 -34
-30 -64 -8 -89 66 -11 35 -21 70 -21 79 0 37 46 53 74 25z m-2272 -42 c9 -10
21 -35 28 -56 14 -45 36 -52 121 -43 68 8 89 -2 89 -40 0 -28 -43 -54 -90 -54
-27 0 -30 -3 -30 -33 0 -40 -15 -57 -52 -57 -22 0 -35 10 -57 43 -17 23 -39
54 -50 69 -12 14 -21 41 -21 59 0 18 -5 47 -12 65 -9 26 -9 36 1 48 18 21 54
20 73 -1z m2782 -14 c26 -38 7 -63 -57 -71 -31 -4 -71 -11 -89 -16 -31 -8 -33
-11 -30 -48 2 -21 8 -53 13 -71 13 -40 -3 -73 -34 -73 -33 0 -42 10 -67 70
-13 30 -29 62 -37 71 -21 25 -16 40 31 85 55 52 106 71 203 73 42 1 55 -3 67
-20z m1077 -45 l30 -66 40 7 c46 8 69 -6 69 -42 0 -16 -10 -29 -30 -41 -18
-10 -30 -25 -30 -37 0 -27 -19 -45 -47 -45 -16 0 -31 13 -50 41 -38 57 -38 57
-58 114 -35 99 -29 135 22 135 20 0 29 -11 54 -66z m-7558 29 c10 -12 19 -53
26 -118 20 -193 20 -206 0 -226 -22 -22 -52 -25 -66 -6 -8 9 -33 253 -33 320
0 19 27 47 44 47 7 0 20 -8 29 -17z m8050 -15 c19 -25 19 -28 3 -52 -9 -14
-23 -26 -31 -26 -23 0 -55 37 -55 63 0 52 49 61 83 15z m-6624 -40 l23 -48 87
0 c93 0 111 -8 111 -47 0 -31 -28 -43 -100 -43 -54 0 -61 -2 -56 -16 10 -25
-20 -64 -49 -64 -31 0 -46 23 -84 132 -44 122 -41 141 14 136 25 -2 34 -11 54
-50z m3824 21 c9 -13 17 -16 22 -10 10 18 51 13 70 -9 17 -19 17 -22 1 -65
-26 -66 -65 -95 -130 -95 -44 0 -58 5 -79 25 -29 30 -36 58 -25 102 17 65 109
99 141 52z m421 2 c17 -11 42 -34 54 -51 13 -17 34 -35 48 -40 34 -13 34 -63
-2 -87 -24 -16 -28 -16 -57 1 -18 9 -45 35 -61 56 -32 43 -47 48 -66 25 -7 -8
-23 -15 -36 -15 -15 0 -24 -6 -24 -15 0 -8 -11 -22 -24 -30 -31 -21 -56 -9
-86 40 -25 41 -23 75 6 90 12 6 29 17 38 24 10 8 29 12 49 8 19 -3 40 -1 48 4
24 15 80 10 113 -10z m972 -6 c21 -33 15 -56 -23 -80 -18 -11 -32 -23 -33 -27
0 -3 21 -14 46 -24 38 -14 51 -15 78 -6 18 7 42 12 54 12 16 0 22 6 22 23 0
30 25 64 60 82 33 17 116 20 125 5 3 -5 14 -10 23 -10 17 0 33 -8 93 -47 50
-34 74 -30 96 15 23 46 71 72 138 72 53 0 75 -12 75 -41 0 -28 -29 -49 -66
-49 -19 0 -34 -4 -34 -8 0 -17 38 -43 76 -54 67 -18 83 -48 44 -83 -28 -25
-92 -15 -148 25 -41 29 -45 30 -62 15 -29 -26 -102 -21 -156 10 l-46 27 -26
-25 c-51 -48 -131 -59 -162 -22 -11 13 -15 11 -32 -10 -27 -34 -84 -48 -143
-35 -103 23 -168 77 -180 151 -8 46 -5 50 56 84 59 32 104 32 125 0z m-3852
-16 c8 -12 12 -28 9 -35 -8 -20 7 -17 32 6 72 67 179 3 113 -67 -12 -13 -27
-23 -35 -23 -16 0 -17 -14 0 -28 21 -17 58 -24 93 -17 26 4 34 11 34 27 0 50
62 108 117 108 19 0 104 -39 125 -57 21 -18 110 -13 116 7 3 7 16 26 31 42 20
23 38 31 74 35 55 7 77 -7 77 -48 0 -30 -30 -55 -56 -45 -8 3 -14 1 -14 -4 0
-16 34 -28 68 -23 58 9 83 -37 40 -77 -29 -26 -91 -26 -142 0 -33 18 -43 19
-73 9 -21 -7 -63 -9 -100 -6 -50 4 -71 1 -100 -14 -21 -11 -56 -19 -80 -19
-23 0 -45 -4 -48 -10 -11 -17 -81 -30 -129 -24 -86 12 -156 82 -156 154 l0 38
-67 -5 c-97 -7 -95 -5 -87 -61 5 -37 2 -51 -9 -61 -29 -23 -60 -9 -84 39 -32
61 -29 90 10 127 43 43 69 52 154 52 62 1 74 -2 87 -20z m-1496 -51 c2 -17 -5
-33 -20 -48 -19 -18 -23 -32 -23 -78 0 -55 -1 -57 -28 -60 -35 -4 -58 15 -82
68 -23 51 -15 77 37 118 33 26 49 32 77 30 31 -3 36 -7 39 -30z m-538 4 c72
-36 101 -124 60 -182 -21 -30 -84 -60 -126 -60 -20 0 -25 -4 -20 -16 18 -47
18 -95 1 -114 -20 -23 -58 -26 -72 -7 -16 20 -47 217 -45 282 3 68 19 92 73
105 56 13 92 11 129 -8z m312 -33 c10 -5 25 -24 34 -41 35 -68 -23 -147 -115
-156 -40 -3 -52 0 -79 23 -27 23 -32 34 -32 70 0 47 33 99 74 116 23 9 91 2
118 -12z m-673 -3 c36 -19 57 -52 72 -113 6 -26 16 -52 20 -57 25 -28 -6 -86
-46 -86 -32 0 -54 29 -65 90 -15 82 -26 88 -71 44 -30 -30 -42 -35 -63 -30
-23 6 -26 3 -26 -19 0 -18 -8 -29 -25 -37 -39 -18 -63 13 -76 96 -9 59 -9 70
6 86 19 21 106 36 131 22 11 -6 25 -5 43 4 34 18 65 18 100 0z m7605 -69 c22
-16 35 -75 36 -162 0 -75 -9 -95 -45 -95 -33 0 -45 20 -45 80 -1 30 -5 75 -10
100 -13 69 19 110 64 77z m2514 -623 c25 -17 29 -56 7 -74 -8 -7 -29 -10 -47
-7 -39 6 -85 -12 -113 -43 -17 -19 -20 -38 -22 -124 0 -55 -2 -110 -3 -121 -1
-11 4 -35 11 -52 10 -26 11 -40 2 -64 -7 -17 -10 -36 -7 -43 9 -24 73 -46 166
-57 51 -6 99 -16 106 -21 18 -16 15 -53 -7 -73 -17 -15 -31 -16 -93 -10 -102
10 -176 31 -215 61 -60 45 -74 84 -59 152 7 30 6 32 -22 32 -33 0 -65 30 -60
56 2 10 22 31 46 47 l42 29 -6 76 c-7 86 4 124 50 178 54 65 171 95 224 58z
m-2224 -70 c25 -24 19 -42 -23 -80 -58 -53 -96 -142 -96 -229 0 -52 5 -78 18
-98 31 -47 57 -53 153 -34 91 17 109 15 125 -14 17 -32 -6 -57 -69 -76 -84
-25 -188 -24 -232 4 -134 83 -122 356 22 504 41 42 76 50 102 23z m242 -15
c174 -54 244 -125 244 -246 0 -66 -27 -133 -81 -200 -71 -88 -123 -110 -163
-69 -15 14 -26 34 -26 45 0 26 26 51 55 51 44 0 115 110 115 178 0 68 -60 117
-189 156 -29 9 -60 21 -67 27 -17 14 -18 51 -2 67 17 17 36 15 114 -9z m1067
-143 c127 -21 147 -53 122 -196 -9 -52 -22 -106 -28 -120 -16 -31 -43 -37 -68
-14 -23 21 -25 65 -3 146 19 74 14 88 -28 88 -50 1 -121 19 -140 37 -37 34 -7
90 41 78 14 -4 61 -12 104 -19z m-403 -34 c41 -6 45 -10 48 -38 4 -39 -17 -57
-67 -56 -57 1 -109 26 -117 56 -9 39 12 59 55 52 20 -4 56 -10 81 -14z m-2180
-42 c11 -11 20 -27 20 -35 0 -12 7 -11 40 6 29 15 50 19 74 15 38 -7 134 -67
193 -119 21 -19 48 -39 61 -46 24 -13 31 -58 10 -79 -21 -21 -72 -14 -98 13
-32 34 -117 100 -155 119 -39 20 -55 6 -55 -51 0 -24 -5 -53 -10 -64 -15 -27
-55 -24 -78 6 -19 23 -82 183 -82 206 0 12 37 49 50 49 6 0 19 -9 30 -20z
m-737 -18 c9 -8 17 -25 17 -36 0 -16 13 -26 52 -41 114 -44 133 -166 30 -195
-20 -5 -72 -10 -115 -10 -76 0 -80 1 -113 34 -30 30 -34 40 -34 89 0 36 -5 59
-15 67 -20 16 -19 74 1 90 36 31 142 32 177 2z m359 3 c9 -19 7 -29 -6 -50
-22 -33 -14 -55 19 -55 18 0 31 9 45 33 29 49 38 57 69 57 23 0 45 -17 107
-82 103 -110 134 -160 134 -215 0 -62 -22 -97 -76 -123 -59 -29 -119 -24 -231
19 -148 57 -210 145 -148 207 24 23 25 28 11 36 -48 27 -56 112 -14 170 26 37
73 39 90 3z m1023 -5 c29 -32 8 -64 -50 -79 -26 -7 -45 -17 -43 -23 8 -24 113
-50 227 -57 93 -5 116 -9 125 -23 13 -22 0 -47 -35 -66 -34 -19 -187 -9 -270
17 -114 36 -169 88 -155 146 19 75 157 134 201 85z m-4932 -7 c8 -10 29 -53
46 -96 44 -110 76 -171 113 -212 27 -31 30 -40 22 -63 -5 -15 -21 -31 -36 -36
-35 -12 -60 9 -99 86 -16 31 -33 59 -38 62 -5 3 -31 -3 -57 -14 -26 -12 -67
-23 -90 -27 -58 -8 -69 -16 -55 -41 27 -51 6 -112 -38 -112 -39 0 -51 18 -61
88 -4 33 -15 71 -24 85 -9 13 -14 31 -10 40 3 8 -8 48 -25 88 -35 82 -38 111
-16 129 31 26 61 4 93 -69 17 -38 34 -82 38 -96 6 -26 9 -27 55 -22 26 3 71
16 99 28 56 24 56 26 19 105 -19 41 -24 75 -12 87 13 13 60 7 76 -10z m2955
-20 c20 -9 41 -15 46 -14 25 6 60 -14 118 -65 60 -52 65 -55 104 -49 46 6 74
-11 74 -45 0 -28 -56 -70 -94 -70 -35 0 -106 41 -144 82 l-23 26 -57 -58 c-39
-39 -70 -62 -99 -70 -79 -24 -154 10 -172 78 -19 66 23 162 82 187 44 19 120
18 165 -2z m-4062 -99 l35 -76 77 8 c42 4 95 8 117 9 38 0 40 -2 43 -32 5 -46
-28 -64 -127 -70 l-80 -6 5 -31 c3 -17 7 -41 10 -53 8 -39 -12 -73 -44 -73
-34 0 -52 16 -52 48 0 13 -5 43 -11 68 -10 38 -15 44 -38 44 -51 0 -66 38 -30
76 19 20 19 24 5 59 -17 39 -21 87 -9 98 3 4 19 7 35 7 27 0 32 -7 64 -76z
m2478 15 c32 -25 35 -69 5 -110 l-20 -29 33 0 c18 0 53 5 78 11 58 13 88 5 96
-27 9 -36 -19 -61 -85 -74 -118 -22 -189 -11 -242 40 -32 30 -39 44 -39 74 0
55 25 95 73 117 54 24 68 24 101 -2z m884 9 c16 -16 15 -53 -1 -67 -8 -6 -68
-16 -135 -22 -113 -12 -123 -11 -142 6 -22 20 -27 60 -9 71 6 4 46 9 88 11 42
3 78 7 80 9 10 10 108 3 119 -8z m4412 -12 c21 -26 7 -59 -35 -84 -36 -21 -49
-23 -142 -19 -109 4 -153 20 -153 57 0 37 37 49 118 37 61 -9 80 -8 115 5 55
20 82 21 97 4z m-5916 -21 c25 -13 33 -13 74 1 25 8 58 12 72 9 48 -12 100
-55 130 -109 17 -30 40 -56 50 -59 14 -4 20 -14 20 -34 0 -44 -25 -73 -64 -73
-39 0 -60 20 -81 80 -20 56 -51 90 -83 90 -18 0 -27 -9 -39 -39 -8 -22 -23
-41 -33 -44 -30 -8 -64 16 -74 51 -5 17 -15 32 -22 32 -19 0 -26 -35 -15 -75
15 -55 -1 -85 -45 -85 -28 0 -52 28 -60 71 -4 19 -15 51 -25 71 -11 21 -19 46
-19 57 0 25 34 44 61 36 11 -4 30 0 42 8 21 14 47 23 72 26 6 0 23 -6 39 -14z
m-2101 -23 c32 -28 13 -102 -26 -102 -7 0 13 -14 43 -30 102 -56 129 -119 73
-172 -44 -41 -71 -50 -157 -55 -72 -5 -84 -3 -108 17 -20 15 -28 30 -28 54 0
65 82 102 105 48 9 -21 15 -23 50 -17 72 11 62 23 -65 74 -111 44 -140 73
-121 119 14 32 68 67 127 81 46 10 82 4 107 -17z m-1143 -17 c16 -20 16 -61
-1 -81 -10 -12 -24 -15 -52 -11 -32 4 -44 1 -73 -25 -19 -17 -42 -44 -50 -60
-20 -39 -5 -63 67 -103 43 -24 66 -30 114 -30 60 0 60 0 63 -31 7 -67 -86 -95
-175 -54 -66 30 -133 79 -154 113 -54 89 6 214 136 281 39 20 109 21 125 1z
m2941 -8 c47 -25 56 -43 58 -125 3 -132 -144 -178 -232 -73 -34 41 -34 77 -2
141 42 84 93 100 176 57z m-2455 -62 c8 -11 12 -10 22 6 16 25 57 24 76 -2 14
-21 16 -21 54 -6 22 9 50 13 63 10 32 -8 75 -49 106 -100 17 -30 32 -43 47
-43 26 0 46 -17 46 -40 0 -25 -53 -70 -82 -70 -33 0 -51 18 -90 87 -17 30 -38
57 -46 60 -21 9 -44 -25 -32 -48 14 -24 12 -63 -2 -77 -18 -18 -63 -15 -81 6
-9 9 -21 39 -26 64 -6 26 -19 67 -28 90 l-18 43 -5 -77 c-9 -114 -55 -168
-153 -176 -84 -7 -152 40 -164 111 -13 85 93 180 197 176 27 -2 53 1 57 4 9
10 46 -2 59 -18z m4444 4 c16 -29 -7 -61 -62 -88 -89 -42 -309 -53 -364 -16
-27 17 -33 62 -10 71 7 3 74 6 147 7 114 2 141 5 179 24 59 28 96 29 110 2z
m-1232 -661 c26 -26 12 -58 -49 -119 -70 -70 -98 -125 -99 -191 0 -39 5 -52
31 -77 44 -45 158 -109 229 -131 67 -20 100 -43 100 -70 0 -81 -208 -27 -361
94 -76 59 -103 115 -97 199 5 85 38 148 123 235 70 71 98 85 123 60z m-2070
-135 c11 -10 32 -52 48 -93 15 -41 30 -78 34 -83 7 -9 161 21 175 34 16 16 54
10 65 -11 6 -11 8 -36 4 -55 -7 -39 7 -65 36 -65 9 0 38 23 63 50 63 68 76 67
144 -14 13 -16 32 -26 47 -26 37 0 68 -33 57 -62 -20 -55 -87 -57 -156 -3
l-33 24 -18 -20 c-46 -51 -116 -63 -172 -29 -26 16 -48 48 -67 97 -1 1 -29 -3
-64 -9 l-62 -12 7 -63 c7 -70 -3 -93 -41 -93 -31 0 -48 24 -55 79 l-5 46 -36
-3 c-72 -6 -86 66 -18 90 16 5 29 14 29 18 0 5 -11 40 -25 78 -29 82 -31 117
-7 131 23 14 27 14 50 -6z m-532 -58 c15 -23 15 -27 1 -49 -9 -13 -37 -30 -68
-40 -71 -24 -154 -72 -184 -107 -24 -29 -24 -31 -8 -70 19 -49 7 -85 -33 -95
-23 -6 -32 -1 -56 25 -16 18 -28 43 -28 58 0 14 -7 50 -16 78 -10 29 -14 64
-10 78 8 33 40 43 70 23 22 -14 25 -13 41 4 34 37 206 117 257 119 10 1 25
-10 34 -24z m236 -42 c39 -35 10 -113 -57 -150 -18 -10 -18 -14 -5 -38 19 -36
85 -87 113 -88 12 0 44 6 70 14 58 16 82 6 82 -37 0 -25 -7 -33 -54 -56 -30
-16 -69 -28 -86 -28 -72 0 -183 83 -222 165 -9 19 -25 37 -35 41 -27 8 -51 49
-43 74 4 12 18 23 35 26 16 4 32 16 39 30 24 54 123 83 163 47z m1205 -20 c28
-37 10 -62 -53 -74 -27 -5 -55 -16 -63 -24 -14 -13 -13 -19 3 -45 16 -29 16
-33 2 -55 -29 -44 -70 -31 -116 35 -13 19 -35 45 -48 58 -43 41 -11 97 45 76
24 -9 33 -6 60 14 17 13 44 27 60 32 39 13 95 4 110 -17z m111 -21 l27 -28 34
23 c59 40 104 31 223 -44 36 -24 71 -43 76 -43 6 0 24 -12 41 -26 39 -33 43
-79 7 -95 -25 -12 -69 9 -201 94 -33 21 -68 37 -79 35 -11 -2 -32 -20 -46 -42
-53 -77 -85 -72 -135 22 -40 75 -42 88 -18 114 23 25 41 23 71 -10z m2160
-759 c27 -38 -3 -79 -51 -69 -56 11 -74 47 -40 81 20 20 72 13 91 -12z m1228
-25 c62 -23 211 -111 230 -135 20 -27 17 -58 -11 -113 -30 -60 -31 -81 -5 -98
28 -17 25 -47 -7 -71 -31 -25 -58 -20 -89 14 -36 39 -39 88 -10 152 15 30 26
59 26 63 0 15 -140 92 -201 111 -35 11 -69 25 -76 31 -20 16 -16 45 10 63 25
17 51 14 133 -17z m-3078 -20 c21 -21 14 -42 -37 -114 -53 -75 -111 -180 -111
-199 0 -19 31 -42 115 -85 67 -35 83 -40 120 -35 71 11 101 -43 48 -85 -41
-32 -107 -23 -208 26 -105 51 -175 118 -175 165 0 57 68 186 157 297 35 43 67
54 91 30z m1454 -95 c8 -10 27 -45 42 -78 15 -33 32 -63 39 -67 15 -10 138 -9
192 0 31 6 41 12 43 30 2 12 14 29 27 38 38 25 60 5 86 -79 20 -67 25 -73 46
-69 53 10 72 -52 27 -87 -53 -41 -116 -19 -143 50 -10 27 -10 27 -103 22 -122
-6 -126 -8 -99 -36 23 -26 27 -57 9 -75 -16 -16 -73 -15 -86 1 -5 6 -39 68
-76 137 -36 69 -74 131 -86 138 -41 25 -12 92 40 92 15 0 34 -8 42 -17z m-974
-35 c6 -6 12 -24 12 -40 0 -24 -6 -32 -29 -41 l-29 -11 40 -28 c85 -62 91
-186 12 -228 -36 -20 -111 -18 -152 4 -55 29 -92 137 -57 166 25 21 63 3 85
-39 27 -54 80 -69 80 -22 0 22 -22 42 -77 70 -66 33 -80 76 -41 126 41 52 117
73 156 43z m2016 -18 c14 -22 28 -40 30 -40 2 0 19 6 37 14 49 19 89 5 133
-48 45 -55 99 -90 125 -81 22 7 61 -25 61 -50 0 -24 -46 -65 -73 -65 -32 0
-138 69 -173 114 -33 41 -40 44 -49 16 -9 -27 -48 -52 -70 -44 -25 10 -115
153 -115 184 0 33 7 40 40 40 21 0 34 -10 54 -40z m-1629 16 c81 -34 34 -134
-77 -161 -34 -9 -36 -30 -5 -68 20 -26 25 -27 54 -17 43 15 73 -1 73 -39 0
-39 -41 -66 -102 -66 -38 0 -52 5 -77 29 -65 63 -88 153 -55 222 20 41 77 91
119 103 17 5 31 10 33 10 1 1 18 -5 37 -13z m343 -42 c24 -17 29 -53 10 -72
-7 -7 -31 -12 -54 -12 -43 0 -94 -30 -94 -55 0 -20 40 -45 73 -45 15 0 54 11
87 25 62 26 84 25 101 -6 15 -28 -2 -51 -63 -84 -43 -24 -65 -30 -118 -30 -76
0 -122 22 -157 75 -35 50 -30 92 15 142 62 69 151 97 200 62z m1072 1 c7 -8
27 -15 44 -15 64 0 100 -63 71 -124 -47 -98 -194 -123 -259 -45 -45 53 -29
131 36 181 28 22 91 23 108 3z m91 -791 c7 -9 13 -32 13 -52 0 -24 6 -41 18
-50 24 -17 80 -202 86 -286 l5 -69 61 5 c71 6 83 3 96 -23 35 -65 -94 -98
-269 -68 -75 13 -91 22 -91 54 0 34 24 48 74 43 l43 -5 -13 66 c-6 37 -20 93
-30 126 -15 53 -18 58 -28 40 -24 -43 -63 -74 -85 -68 -36 9 -37 47 -1 124 18
39 34 89 37 112 3 23 10 48 16 55 13 17 52 15 68 -4z m594 -95 c127 -16 165
-40 165 -103 0 -14 -18 -73 -40 -131 -22 -58 -40 -118 -40 -134 0 -16 -7 -34
-15 -41 -20 -17 -65 -16 -77 1 -16 25 -1 114 37 204 20 48 32 91 28 95 -4 4
-56 14 -115 23 -111 15 -138 26 -138 58 0 32 29 51 69 45 20 -3 77 -11 126
-17z m-1210 5 c21 -9 68 -102 95 -192 21 -69 32 -84 45 -62 10 16 68 11 98 -9
16 -10 42 -35 59 -55 19 -24 38 -36 54 -36 62 0 85 -50 42 -90 -41 -37 -82
-27 -150 38 -56 53 -61 56 -72 38 -32 -54 -78 -72 -109 -42 -8 8 -26 63 -41
121 -15 59 -40 136 -56 172 -33 72 -36 93 -18 111 13 13 28 15 53 6z m-229
-40 c16 -23 16 -28 1 -59 -9 -19 -67 -87 -128 -150 -66 -68 -109 -119 -103
-124 11 -11 203 -35 259 -33 22 1 58 2 80 4 35 3 40 0 49 -25 9 -24 6 -31 -17
-55 -25 -24 -34 -27 -100 -27 -75 0 -235 19 -298 36 -53 13 -89 51 -89 92 0
42 24 75 144 193 53 52 107 112 121 134 30 47 57 52 81 14z m6202 -526 c6 -7
18 -42 27 -78 31 -123 34 -131 55 -120 28 15 127 12 160 -5 64 -33 80 -102 33
-147 -27 -26 -236 -139 -279 -152 -13 -4 -30 0 -44 12 -32 26 -21 67 23 88
l33 16 -43 166 c-46 181 -49 202 -31 220 16 16 53 15 66 0z m2943 -57 l24 -20
-23 -41 -23 -41 20 -43 c28 -57 27 -84 -4 -98 -19 -8 -29 -8 -47 4 -24 16 -88
132 -88 159 0 15 94 99 110 99 4 0 18 -9 31 -19z m-4485 -24 c25 -14 57 -51
104 -122 78 -116 170 -232 194 -243 50 -23 24 -92 -35 -92 -35 0 -80 43 -159
154 l-55 77 -11 -43 c-16 -65 -32 -88 -71 -105 -98 -40 -215 64 -183 162 16
50 62 85 111 85 l39 0 -6 40 c-11 65 2 91 46 98 3 1 15 -4 26 -11z m568 -9 c9
-12 16 -33 16 -47 0 -25 85 -194 107 -213 10 -8 16 -3 24 21 11 32 35 51 64
51 9 0 43 -26 76 -57 l60 -57 -2 142 c-2 155 3 172 51 172 31 0 62 -29 60 -56
0 -11 -4 -88 -8 -172 -7 -152 -7 -154 -35 -178 -42 -36 -77 -31 -138 20 l-53
44 -12 -28 c-17 -40 -55 -63 -85 -51 -31 11 -94 101 -152 216 -49 99 -67 176
-47 200 18 22 57 18 74 -7z m1867 -8 c22 -12 26 -59 7 -78 -7 -7 -26 -12 -42
-12 -37 0 -61 -14 -52 -28 3 -6 36 -20 73 -32 107 -35 162 -81 163 -136 0 -44
-26 -62 -111 -80 -98 -21 -176 -15 -201 16 -27 33 -23 74 8 99 35 28 50 26 79
-5 22 -24 29 -26 57 -17 l33 9 -55 18 c-122 40 -186 106 -158 163 16 33 52 60
104 78 48 17 69 18 95 5z m1789 -9 c18 -35 11 -59 -30 -94 -22 -19 -40 -37
-40 -42 0 -4 16 -5 36 -2 46 8 74 -7 74 -38 0 -35 -44 -65 -94 -65 -59 1 -101
39 -116 107 -11 47 6 89 49 126 41 34 104 38 121 8z m-2944 -29 c17 -11 34
-48 34 -75 0 -14 -16 -49 -36 -78 l-37 -53 28 -24 c24 -20 34 -23 77 -17 80
11 105 -31 47 -79 -50 -43 -134 -33 -193 22 -80 75 -87 212 -14 289 21 23 71
31 94 15z m2673 -18 c23 -19 31 -34 31 -59 0 -39 -20 -57 -98 -94 -50 -23 -52
-26 -52 -63 0 -22 9 -58 20 -80 32 -67 23 -108 -26 -108 -26 0 -71 49 -81 88
-3 15 -19 54 -34 87 -58 129 -58 189 -1 184 20 -2 37 7 64 34 33 34 41 37 91
37 45 0 61 -5 86 -26z m-575 -34 c14 -5 31 -21 39 -36 9 -17 17 -23 21 -15 4
6 22 11 41 11 29 0 46 -12 115 -80 78 -77 92 -104 68 -128 -26 -26 -68 -13
-123 39 l-53 50 -47 -35 c-39 -30 -55 -36 -97 -36 -45 0 -54 4 -89 39 -46 46
-50 81 -16 132 21 32 77 69 104 69 6 0 23 -4 37 -10z m-516 -12 c17 -17 15
-64 -4 -83 -10 -9 -29 -15 -46 -13 -27 3 -33 -2 -57 -44 l-26 -47 22 -23 c21
-20 26 -21 65 -11 35 10 47 9 66 -3 29 -19 28 -48 -4 -73 -58 -46 -151 -35
-203 24 -25 29 -31 45 -31 82 0 58 32 123 82 169 31 28 46 34 81 34 24 0 48
-5 55 -12z m111 -4 c19 -14 29 -15 61 -5 84 25 160 5 160 -43 0 -34 -19 -46
-73 -46 -48 0 -48 0 -33 -22 30 -43 15 -88 -30 -88 -26 0 -164 149 -164 177 0
41 39 55 79 27z m-3247 -71 c10 -9 18 -22 18 -30 0 -25 -39 -53 -74 -53 -61 0
-67 -7 -44 -46 28 -47 13 -84 -32 -84 -25 0 -36 9 -75 67 -61 92 -59 123 10
136 17 3 48 10 70 15 63 15 107 13 127 -5z m-1413 -84 l53 -86 41 9 c81 18
204 -9 241 -53 52 -61 25 -129 -71 -181 -77 -42 -135 -53 -174 -34 -39 20 -38
20 -33 -1 3 -10 -2 -27 -10 -38 -25 -35 -98 -27 -194 21 -78 38 -82 39 -82 18
0 -12 -9 -33 -21 -48 -28 -36 -76 -36 -111 2 -37 38 -178 316 -178 350 0 6 11
19 25 28 22 15 27 15 48 1 12 -8 33 -41 46 -73 14 -33 33 -72 43 -89 l18 -30
0 26 c0 14 16 56 35 92 19 36 35 73 35 81 0 19 48 32 69 19 29 -18 25 -64 -10
-130 l-33 -61 24 -21 c40 -33 207 -111 238 -111 l30 0 -23 58 c-12 31 -30 78
-39 103 -9 26 -34 76 -56 112 -22 36 -40 74 -40 84 0 27 21 44 50 41 19 -2 37
-22 79 -89z m-1494 43 c18 -12 122 -193 156 -269 l31 -73 26 20 c31 25 88 26
124 2 14 -9 54 -38 87 -64 33 -25 66 -48 72 -50 16 -5 14 -58 -2 -69 -39 -25
-89 -5 -172 68 -20 18 -41 33 -45 33 -5 0 -17 -15 -27 -34 -23 -42 -58 -61
-86 -46 -21 12 -44 52 -100 178 -21 46 -58 118 -83 161 -47 79 -56 117 -34
139 13 13 38 15 53 4z m2448 -36 c8 -8 24 -12 35 -9 17 4 37 -10 89 -61 70
-68 78 -73 88 -56 11 18 64 11 75 -10 14 -26 6 -51 -23 -78 -43 -39 -93 -33
-159 21 l-53 43 -24 -29 c-35 -42 -80 -67 -121 -67 -80 1 -112 76 -71 165 35
79 123 122 164 81z m-1527 -76 c150 -259 156 -270 150 -295 -7 -29 -49 -44
-71 -25 -8 6 -32 44 -53 83 -22 40 -63 112 -91 160 -47 81 -62 133 -44 151 4
4 20 6 36 4 25 -3 36 -15 73 -78z m-1018 2 c3 -29 -1 -34 -31 -47 -43 -18 -80
-61 -103 -120 -22 -59 -9 -106 41 -155 32 -31 43 -36 103 -40 67 -5 67 -5 70
-37 4 -41 -27 -63 -88 -63 -63 1 -118 29 -168 85 -71 81 -84 162 -41 260 42
96 112 158 174 153 37 -3 40 -5 43 -36z m2260 11 c15 -13 22 -36 27 -78 6 -53
4 -64 -15 -88 -51 -64 -163 -91 -217 -51 -21 16 -29 31 -31 60 -8 104 165 218
236 157z m-1474 -129 c9 -8 16 -24 16 -35 0 -13 7 -19 23 -19 13 0 34 -12 48
-26 13 -15 41 -39 62 -55 30 -22 43 -26 62 -19 28 11 65 -12 65 -41 0 -11 -11
-31 -25 -44 -33 -34 -79 -33 -137 4 l-46 29 -12 -29 c-26 -63 -90 -77 -148
-33 -49 38 -66 84 -53 146 13 57 25 84 54 116 24 26 68 29 91 6z m-1524 -799
c15 -19 9 -131 -20 -365 -10 -85 -22 -191 -26 -235 -10 -121 -23 -145 -76
-145 -39 0 -63 45 -43 83 8 15 19 71 25 123 6 53 17 140 25 193 7 53 19 150
25 216 6 66 13 126 15 133 6 17 60 15 75 -3z m-442 -97 c22 -22 12 -57 -63
-209 -41 -83 -75 -157 -75 -164 0 -16 30 -26 174 -60 60 -14 117 -30 127 -36
24 -12 25 -56 2 -81 -17 -19 -62 -24 -78 -9 -6 5 -66 24 -134 42 -214 56 -232
93 -135 284 31 61 71 140 90 178 27 53 39 67 57 67 13 0 28 -5 35 -12z m1270
-21 c12 -13 31 -55 42 -93 10 -38 35 -106 53 -152 36 -87 37 -116 5 -133 -43
-23 -98 52 -143 196 -22 69 -22 69 -29 37 -10 -42 -44 -60 -81 -44 -55 25 -37
100 41 172 50 46 81 51 112 17z m496 -54 c178 -43 191 -68 138 -272 -21 -82
-32 -108 -52 -123 -16 -11 -33 -16 -43 -12 -35 13 -37 37 -11 120 14 43 28
100 31 125 6 53 13 48 -102 74 -94 21 -140 66 -103 103 16 16 15 16 142 -15z
m-1158 -141 c6 -4 21 -26 33 -49 27 -54 38 -60 64 -35 35 31 63 42 107 42 58
0 101 -23 157 -84 26 -29 67 -74 90 -100 42 -46 45 -61 20 -93 -5 -7 -22 -13
-36 -13 -32 0 -45 10 -96 74 -68 85 -103 116 -134 116 -34 0 -45 -12 -62 -67
-6 -24 -20 -50 -30 -59 -21 -19 -69 -15 -80 6 -102 202 -112 233 -87 258 13
13 37 15 54 4z m942 -164 c20 -20 14 -53 -15 -81 -39 -37 -87 -54 -170 -62
-87 -9 -123 7 -123 54 0 36 13 41 98 41 56 0 75 5 117 30 55 32 75 36 93 18z
m461 -674 c58 -20 116 -46 129 -57 31 -29 29 -79 -12 -222 -19 -66 -37 -136
-41 -155 -10 -47 -22 -60 -56 -60 -60 0 -59 44 5 255 19 61 31 113 28 116 -4
4 -52 21 -107 39 -125 40 -129 42 -133 69 -9 61 41 65 187 15z m-2851 -159
c13 -54 8 -132 -24 -350 -18 -129 -23 -139 -57 -143 -19 -2 -30 4 -43 23 -17
25 -17 32 -1 113 25 135 40 272 34 327 -7 66 5 87 46 83 29 -3 33 -7 45 -53z
m1370 -7 c5 -7 13 -24 17 -38 4 -14 21 -60 37 -102 l29 -78 57 0 c32 0 72 4
90 9 45 13 82 -1 82 -32 0 -36 -31 -57 -104 -69 -47 -8 -64 -14 -56 -22 14
-14 13 -79 -2 -94 -36 -36 -94 0 -118 74 -10 28 -17 34 -39 34 -44 0 -90 20
-96 42 -9 27 21 58 56 58 l28 0 -30 80 c-32 88 -36 119 -17 138 16 16 53 15
66 0z m926 -20 c7 -13 17 -36 20 -51 l7 -28 26 21 c59 46 115 20 200 -96 38
-52 52 -64 75 -64 36 0 64 -39 49 -69 -14 -26 -71 -44 -102 -32 -28 11 -71 55
-124 130 l-39 54 -24 -54 c-29 -65 -49 -89 -75 -89 -29 0 -57 29 -57 58 0 13
-9 65 -21 114 -20 85 -20 90 -3 109 23 25 50 24 68 -3z m-2442 -45 c10 -9 18
-22 18 -30 0 -8 -33 -49 -74 -92 -81 -85 -199 -255 -194 -280 4 -22 115 -65
235 -92 86 -19 106 -21 126 -10 55 30 105 -12 85 -70 -19 -55 -49 -59 -201
-28 -253 53 -370 123 -353 213 6 32 116 203 181 281 104 126 136 145 177 108z
m1874 2 c15 -10 28 -42 44 -105 23 -87 25 -90 52 -90 40 0 58 -39 34 -74 -29
-45 -96 -48 -127 -6 -19 26 -69 203 -69 245 0 13 8 29 18 34 22 14 24 13 48
-4z m459 -47 c32 -38 40 -86 22 -131 -36 -86 -171 -110 -226 -40 -27 33 -28
107 -3 146 31 46 52 56 120 55 56 -1 65 -4 87 -30z m-1773 -15 c36 -32 10
-115 -31 -97 -28 13 -67 8 -94 -12 -47 -34 -42 -42 49 -86 69 -33 89 -47 102
-74 14 -31 14 -37 -1 -68 -26 -56 -94 -89 -192 -94 -62 -3 -89 0 -113 12 -46
24 -66 58 -58 101 12 64 82 74 96 14 5 -20 13 -24 52 -27 25 -2 61 3 79 11
l34 13 -74 39 c-105 55 -132 105 -92 171 51 84 194 142 243 97z m721 -34 c27
-37 9 -71 -36 -69 -52 3 -56 1 -77 -32 -26 -43 -25 -73 2 -92 33 -24 107 -21
134 5 40 38 84 2 70 -57 -10 -39 -61 -64 -131 -64 -188 1 -255 157 -126 291
46 48 50 50 96 47 38 -2 52 -8 68 -29z m-371 -16 c29 -26 24 -88 -13 -145 -17
-27 -41 -55 -52 -63 -21 -15 -21 -15 -2 -29 11 -8 39 -17 62 -21 47 -7 69 -32
58 -65 -8 -25 -43 -34 -101 -27 -90 10 -171 110 -160 197 15 110 147 208 208
153z m-1728 -769 c107 -45 141 -68 183 -122 42 -56 63 -125 70 -237 11 -178
-34 -309 -134 -391 -55 -45 -145 -84 -193 -84 -29 0 -60 30 -60 59 0 25 32 51
64 51 74 1 158 66 197 155 18 41 22 70 23 160 1 140 -14 196 -68 250 -50 49
-157 93 -236 97 -54 3 -55 4 -58 34 -7 75 75 85 212 28z m-824 -1257 c46 -16
70 -63 70 -139 0 -63 13 -78 67 -78 36 0 53 -16 53 -51 0 -30 -19 -54 -50 -64
-11 -3 -20 -11 -20 -16 0 -5 20 -36 45 -70 64 -87 99 -222 75 -293 -24 -74
-136 -131 -280 -142 -77 -6 -133 16 -138 54 -6 40 16 55 72 48 58 -7 167 16
214 44 28 17 32 25 32 61 0 66 -18 110 -77 190 -54 72 -55 75 -50 127 3 28 2
52 -3 52 -18 0 -40 71 -40 129 l0 61 -54 0 c-36 0 -56 -4 -59 -14 -14 -36 -87
-16 -87 24 0 35 13 52 54 71 47 21 124 24 176 6z m12699 -5255 c19 -9 43 -28
53 -42 21 -29 57 -185 58 -248 0 -78 -41 -126 -117 -137 -21 -3 -666 -10
-1433 -15 -1326 -8 -1397 -8 -1430 9 -19 10 -44 33 -54 51 -18 31 -19 42 -9
153 12 131 22 156 84 192 31 18 55 20 259 23 2512 37 2545 37 2589 14z m468
-814 c123 -122 223 -225 223 -229 0 -30 -140 -30 -8245 -27 -6405 3 -8137 6
-8165 16 -74 26 -80 16 140 237 l205 205 75 1 c41 1 100 4 130 9 30 4 3511 8
7734 9 l7680 1 223 -222z"/>
<path d="M6638 16333 c-10 -2 -18 -9 -18 -14 0 -14 16 -11 30 6 7 8 11 14 9
14 -2 -1 -12 -3 -21 -6z"/>
<path d="M2055 16230 c-4 -12 -5 -23 -3 -24 11 -10 75 -14 88 -6 25 15 -1 44
-43 48 -29 3 -37 -1 -42 -18z"/>
<path d="M2385 16210 c-3 -5 3 -10 14 -10 12 0 21 5 21 10 0 6 -6 10 -14 10
-8 0 -18 -4 -21 -10z"/>
<path d="M7630 15120 c9 -16 21 -20 61 -20 59 0 57 13 -5 29 -63 16 -69 15
-56 -9z"/>
<path d="M8151 15114 c-25 -17 -47 -24 -83 -24 -47 0 -48 -1 -37 -22 7 -13 15
-30 18 -38 12 -26 153 -91 204 -93 87 -4 88 34 2 133 -31 36 -59 66 -63 67 -4
0 -22 -10 -41 -23z"/>
<path d="M6964 15155 c-34 -34 -29 -69 9 -73 22 -3 37 6 70 39 l42 43 -25 7
c-46 13 -71 9 -96 -16z"/>
<path d="M2700 15040 c0 -5 7 -10 16 -10 8 0 12 5 9 10 -3 6 -10 10 -16 10 -5
0 -9 -4 -9 -10z"/>
<path d="M4494 14984 c-4 -17 -2 -29 7 -35 37 -24 67 20 32 46 -26 20 -32 18
-39 -11z"/>
<path d="M1943 14926 c-23 -20 -26 -28 -17 -43 21 -34 85 -29 105 9 10 18 8
24 -12 39 -32 24 -43 24 -76 -5z"/>
<path d="M6820 13015 c0 -21 27 -30 53 -17 l22 11 -22 0 c-12 1 -25 6 -28 11
-9 15 -25 12 -25 -5z"/>
<path d="M12443 11375 c-9 -26 3 -28 44 -6 l38 20 -38 1 c-25 0 -40 -5 -44
-15z"/>
<path d="M10674 11359 c-3 -6 3 -20 14 -32 17 -17 23 -18 36 -7 9 7 16 21 16
31 0 14 -7 19 -29 19 -17 0 -33 -5 -37 -11z"/>
<path d="M14114 11379 c-6 -10 11 -28 28 -29 17 0 17 20 -1 30 -14 7 -22 7
-27 -1z"/>
<path d="M9194 11134 c3 -9 6 -18 6 -20 0 -2 9 -4 19 -4 11 0 27 -10 36 -22
l16 -23 47 26 c26 14 46 30 45 35 -3 14 -42 22 -112 23 -54 1 -62 -1 -57 -15z"/>
<path d="M8770 11073 c0 -18 38 -59 46 -50 4 4 -4 20 -19 35 -15 14 -27 22
-27 15z"/>
<path d="M9990 11221 c-18 -35 -11 -45 15 -21 13 12 22 27 19 31 -9 15 -23 10
-34 -10z"/>
<path d="M9650 11135 c-16 -19 0 -19 26 0 16 12 16 14 3 15 -9 0 -22 -7 -29
-15z"/>
<path d="M8260 11024 c-13 -33 -13 -61 1 -69 14 -9 15 -7 22 48 7 51 -7 64
-23 21z"/>
<path d="M7556 8824 c-11 -28 10 -39 41 -24 25 12 26 14 8 18 -11 2 -25 8 -31
13 -8 6 -14 4 -18 -7z"/>
</g>
</svg>
